<svg width="8" height="8" viewBox="0 0 8 8" fill="none" xmlns="http://www.w3.org/2000/svg">
<path d="M3.99999 3.05732L6.82866 0.228658C7.08897 -0.0316523 7.51101 -0.0316525 7.77132 0.228658C8.03163 0.488968 8.03163 0.911014 7.77132 1.17132L4.94266 3.99999L7.77132 6.82866C8.03163 7.08897 8.03163 7.51101 7.77132 7.77132C7.51101 8.03163 7.08897 8.03163 6.82866 7.77132L3.99999 4.94266L1.17132 7.77132C0.911014 8.03163 0.488968 8.03163 0.228658 7.77132C-0.0316526 7.51101 -0.0316527 7.08897 0.228657 6.82866L3.05732 3.99999L0.228658 1.17132C-0.0316523 0.911014 -0.0316527 0.488968 0.228658 0.228658C0.488968 -0.0316527 0.911014 -0.0316526 1.17132 0.228658L3.99999 3.05732Z" fill="#647E9A"/>
</svg>
