<svg width="14" height="8" viewBox="0 0 14 8" fill="none" xmlns="http://www.w3.org/2000/svg">
<path d="M3.19329 5.52667L2.99996 5.72667V0.666667C2.99996 0.489856 2.92972 0.320287 2.8047 0.195262C2.67967 0.070238 2.51011 0 2.33329 0C2.15648 0 1.98691 0.070238 1.86189 0.195262C1.73687 0.320287 1.66663 0.489856 1.66663 0.666667V5.72667L1.47329 5.52667C1.34776 5.40113 1.1775 5.33061 0.999961 5.33061C0.822426 5.33061 0.652163 5.40113 0.526627 5.52667C0.401092 5.6522 0.330566 5.82247 0.330566 6C0.330566 6.17753 0.401092 6.3478 0.526627 6.47333L1.85996 7.80667C1.92336 7.86736 1.99813 7.91494 2.07996 7.94667C2.15976 7.98194 2.24605 8.00016 2.33329 8.00016C2.42054 8.00016 2.50683 7.98194 2.58663 7.94667C2.66846 7.91494 2.74322 7.86736 2.80663 7.80667L4.13996 6.47333C4.20212 6.41117 4.25143 6.33738 4.28507 6.25617C4.31871 6.17495 4.33602 6.08791 4.33602 6C4.33602 5.91209 4.31871 5.82505 4.28507 5.74383C4.25143 5.66262 4.20212 5.58883 4.13996 5.52667C4.0778 5.46451 4.00401 5.4152 3.92279 5.38156C3.84158 5.34792 3.75453 5.33061 3.66663 5.33061C3.57872 5.33061 3.49168 5.34792 3.41046 5.38156C3.32925 5.4152 3.25545 5.46451 3.19329 5.52667ZM6.33329 1.33333H13C13.1768 1.33333 13.3463 1.2631 13.4714 1.13807C13.5964 1.01305 13.6666 0.843478 13.6666 0.666667C13.6666 0.489856 13.5964 0.320287 13.4714 0.195262C13.3463 0.070238 13.1768 0 13 0H6.33329C6.15648 0 5.98691 0.070238 5.86189 0.195262C5.73687 0.320287 5.66663 0.489856 5.66663 0.666667C5.66663 0.843478 5.73687 1.01305 5.86189 1.13807C5.98691 1.2631 6.15648 1.33333 6.33329 1.33333ZM13 3.33333H6.33329C6.15648 3.33333 5.98691 3.40357 5.86189 3.5286C5.73687 3.65362 5.66663 3.82319 5.66663 4C5.66663 4.17681 5.73687 4.34638 5.86189 4.4714C5.98691 4.59643 6.15648 4.66667 6.33329 4.66667H13C13.1768 4.66667 13.3463 4.59643 13.4714 4.4714C13.5964 4.34638 13.6666 4.17681 13.6666 4C13.6666 3.82319 13.5964 3.65362 13.4714 3.5286C13.3463 3.40357 13.1768 3.33333 13 3.33333ZM13 6.66667H6.33329C6.15648 6.66667 5.98691 6.7369 5.86189 6.86193C5.73687 6.98695 5.66663 7.15652 5.66663 7.33333C5.66663 7.51014 5.73687 7.67971 5.86189 7.80474C5.98691 7.92976 6.15648 8 6.33329 8H13C13.1768 8 13.3463 7.92976 13.4714 7.80474C13.5964 7.67971 13.6666 7.51014 13.6666 7.33333C13.6666 7.15652 13.5964 6.98695 13.4714 6.86193C13.3463 6.7369 13.1768 6.66667 13 6.66667Z" fill="#0A2A51"/>
</svg>
