<svg width="18" height="18" viewBox="0 0 18 18" fill="none" xmlns="http://www.w3.org/2000/svg">
<path d="M7.55246 2.11501L2.35496 6.2775C1.76996 6.7425 1.39495 7.72502 1.52245 8.46002L2.51996 14.43C2.69996 15.495 3.71995 16.3575 4.79995 16.3575H13.2C14.2725 16.3575 15.3 15.4875 15.48 14.43L16.4775 8.46002C16.5975 7.72502 16.2225 6.7425 15.645 6.2775L10.4474 2.12251C9.64495 1.47751 8.34746 1.47751 7.55246 2.11501Z" stroke="#6783A0" stroke-width="1.5" stroke-linecap="round" stroke-linejoin="round"/>
<path d="M9 11.625C10.0355 11.625 10.875 10.7855 10.875 9.75C10.875 8.71447 10.0355 7.875 9 7.875C7.96447 7.875 7.125 8.71447 7.125 9.75C7.125 10.7855 7.96447 11.625 9 11.625Z" stroke="#6783A0" stroke-width="1.5" stroke-linecap="round" stroke-linejoin="round"/>
</svg>
