<svg width="24" height="24" viewBox="0 0 24 24" fill="none" xmlns="http://www.w3.org/2000/svg">
<g clip-path="url(#clip0_6061_810)">
<path d="M14.2969 11.9978C14.2969 13.2664 13.2686 14.2947 12 14.2947C10.7314 14.2947 9.70312 13.2664 9.70312 11.9978C9.70312 10.7292 10.7314 9.70093 12 9.70093C13.2686 9.70093 14.2969 10.7292 14.2969 11.9978Z" fill="#6783A0"/>
<path d="M17.3709 7.9328C17.2604 7.63361 17.0843 7.36279 16.8554 7.1405C16.6331 6.91162 16.3625 6.73547 16.0631 6.62506C15.8203 6.53076 15.4556 6.41852 14.7838 6.38794C14.057 6.3548 13.8391 6.34766 11.9993 6.34766C10.1592 6.34766 9.94135 6.35461 9.21478 6.38776C8.54297 6.41852 8.17804 6.53076 7.93542 6.62506C7.63605 6.73547 7.36523 6.91162 7.14313 7.1405C6.91425 7.36279 6.7381 7.63342 6.6275 7.9328C6.5332 8.1756 6.42096 8.54053 6.39038 9.21234C6.35724 9.9389 6.3501 10.1568 6.3501 11.9968C6.3501 13.8367 6.35724 14.0546 6.39038 14.7813C6.42096 15.4531 6.5332 15.8179 6.6275 16.0607C6.7381 16.36 6.91406 16.6307 7.14294 16.853C7.36523 17.0818 7.63586 17.258 7.93524 17.3684C8.17804 17.4629 8.54297 17.5751 9.21478 17.6057C9.94135 17.6389 10.1591 17.6458 11.9991 17.6458C13.8393 17.6458 14.0572 17.6389 14.7836 17.6057C15.4554 17.5751 15.8203 17.4629 16.0631 17.3684C16.6641 17.1366 17.139 16.6616 17.3709 16.0607C17.4651 15.8179 17.5774 15.4531 17.6082 14.7813C17.6413 14.0546 17.6483 13.8367 17.6483 11.9968C17.6483 10.1568 17.6413 9.9389 17.6082 9.21234C17.5776 8.54053 17.4653 8.1756 17.3709 7.9328ZM11.9993 15.535C10.045 15.535 8.46075 13.9509 8.46075 11.9966C8.46075 10.0424 10.045 8.45831 11.9993 8.45831C13.9534 8.45831 15.5376 10.0424 15.5376 11.9966C15.5376 13.9509 13.9534 15.535 11.9993 15.535ZM15.6775 9.14532C15.2208 9.14532 14.8506 8.77509 14.8506 8.31842C14.8506 7.86176 15.2208 7.49152 15.6775 7.49152C16.1342 7.49152 16.5044 7.86176 16.5044 8.31842C16.5042 8.77509 16.1342 9.14532 15.6775 9.14532Z" fill="#6783A0"/>
<path d="M12 0C5.3736 0 0 5.3736 0 12C0 18.6264 5.3736 24 12 24C18.6264 24 24 18.6264 24 12C24 5.3736 18.6264 0 12 0ZM18.8491 14.8409C18.8157 15.5744 18.6991 16.0752 18.5288 16.5135C18.1708 17.4391 17.4391 18.1708 16.5135 18.5288C16.0754 18.6991 15.5744 18.8156 14.8411 18.8491C14.1063 18.8826 13.8715 18.8906 12.0002 18.8906C10.1287 18.8906 9.8941 18.8826 9.15912 18.8491C8.42578 18.8156 7.9248 18.6991 7.48663 18.5288C7.02667 18.3558 6.61029 18.0846 6.26605 17.7339C5.91559 17.3899 5.64441 16.9733 5.47137 16.5135C5.30109 16.0754 5.18445 15.5744 5.15112 14.8411C5.11725 14.1061 5.10938 13.8713 5.10938 12C5.10938 10.1287 5.11725 9.89392 5.15094 9.15912C5.18427 8.4256 5.30072 7.9248 5.47101 7.48645C5.64404 7.02667 5.91541 6.61011 6.26605 6.26605C6.61011 5.91541 7.02667 5.64423 7.48645 5.47119C7.9248 5.3009 8.4256 5.18445 9.15912 5.15094C9.89392 5.11743 10.1287 5.10938 12 5.10938C13.8713 5.10938 14.1061 5.11743 14.8409 5.15112C15.5744 5.18445 16.0752 5.3009 16.5135 5.47101C16.9733 5.64404 17.3899 5.91541 17.7341 6.26605C18.0846 6.61029 18.356 7.02667 18.5288 7.48645C18.6993 7.9248 18.8157 8.4256 18.8492 9.15912C18.8828 9.89392 18.8906 10.1287 18.8906 12C18.8906 13.8713 18.8828 14.1061 18.8491 14.8409Z" fill="#6783A0"/>
</g>
<defs>
<clipPath id="clip0_6061_810">
<rect width="24" height="24" fill="white"/>
</clipPath>
</defs>
</svg>
