<svg width="17" height="16" viewBox="0 0 17 16" fill="none" xmlns="http://www.w3.org/2000/svg">
<path d="M11.8333 12.2867H9.16665L6.19997 14.26C5.75997 14.5533 5.16665 14.24 5.16665 13.7067V12.2867C3.16665 12.2867 1.83331 10.9534 1.83331 8.95337V4.95333C1.83331 2.95333 3.16665 1.62 5.16665 1.62H11.8333C13.8333 1.62 15.1666 2.95333 15.1666 4.95333V8.95337C15.1666 10.9534 13.8333 12.2867 11.8333 12.2867Z" stroke="#0A2A51" stroke-width="1.2" stroke-miterlimit="10" stroke-linecap="round" stroke-linejoin="round"/>
<path d="M8.50002 7.5733V7.43333C8.50002 6.98 8.78004 6.73998 9.06004 6.54665C9.33337 6.35998 9.60667 6.11999 9.60667 5.67999C9.60667 5.06666 9.11335 4.5733 8.50002 4.5733C7.88669 4.5733 7.39337 5.06666 7.39337 5.67999" stroke="#0A2A51" stroke-width="1.2" stroke-linecap="round" stroke-linejoin="round"/>
<path d="M8.49702 9.16665H8.50302" stroke="#0A2A51" stroke-width="1.2" stroke-linecap="square" stroke-linejoin="round"/>
</svg>
