<svg width="17" height="16" viewBox="0 0 17 16" fill="none" xmlns="http://www.w3.org/2000/svg">
<path d="M15.1666 11.28V13.28C15.1674 13.4657 15.1294 13.6494 15.055 13.8195C14.9806 13.9897 14.8715 14.1424 14.7347 14.2679C14.5979 14.3934 14.4364 14.489 14.2605 14.5485C14.0846 14.6079 13.8982 14.63 13.7133 14.6133C11.6619 14.3904 9.69131 13.6894 7.95998 12.5667C6.34919 11.5431 4.98353 10.1774 3.95998 8.56665C2.83329 6.82745 2.13214 4.84731 1.91331 2.78665C1.89665 2.60229 1.91856 2.41649 1.97764 2.24107C2.03673 2.06564 2.13169 1.90444 2.25649 1.76773C2.38128 1.63102 2.53318 1.52179 2.7025 1.447C2.87183 1.37221 3.05487 1.33349 3.23998 1.33332H5.23998C5.56351 1.33013 5.87717 1.4447 6.12248 1.65567C6.3678 1.86664 6.52803 2.15961 6.57331 2.47998C6.65772 3.12003 6.81428 3.74847 7.03998 4.35332C7.12967 4.59193 7.14908 4.85126 7.09591 5.10057C7.04274 5.34988 6.91922 5.57872 6.73998 5.75998L5.89331 6.60665C6.84235 8.27568 8.22428 9.65761 9.89331 10.6067L10.74 9.75998C10.9212 9.58074 11.1501 9.45722 11.3994 9.40405C11.6487 9.35088 11.908 9.37029 12.1466 9.45998C12.7515 9.68568 13.3799 9.84224 14.02 9.92665C14.3438 9.97234 14.6396 10.1355 14.851 10.385C15.0624 10.6345 15.1748 10.953 15.1666 11.28Z" stroke="#E20054" stroke-width="1.5" stroke-linecap="round" stroke-linejoin="round"/>
</svg>
