<svg width="14" height="14" viewBox="0 0 14 14" fill="none" xmlns="http://www.w3.org/2000/svg">
<path d="M2.33289 0.906555H4.34753C4.66001 0.902069 4.96509 0.99507 5.22058 1.1712L5.32703 1.25226C5.56759 1.45192 5.73944 1.7208 5.81921 2.02081L5.84753 2.15167C5.85781 2.22544 5.86916 2.30115 5.88269 2.37726L5.9325 2.62433C6.00429 2.9429 6.09707 3.25634 6.20984 3.56281V3.56378C6.28012 3.75696 6.27686 3.96979 6.20007 4.16046C6.12366 4.34996 5.97974 4.50432 5.79675 4.59503L5.4989 4.73175L5.00281 4.95831L5.27136 5.43292C5.65943 6.11717 6.13302 6.74995 6.68054 7.31476L6.6864 7.32062L6.69226 7.3255C7.25702 7.873 7.88893 8.34662 8.57312 8.73468L9.03992 8.99933L9.27136 8.51593L9.41589 8.2132C9.50633 8.02854 9.66174 7.88387 9.85242 7.80695C10.0415 7.73069 10.2523 7.7258 10.4442 7.79425V7.79523C10.7501 7.90991 11.0639 8.00219 11.3827 8.07355V8.07452C11.4644 8.09311 11.6615 8.14662 11.8573 8.16046C12.1486 8.22074 12.4144 8.36577 12.6219 8.57648L12.7079 8.67218C12.9008 8.905 13.0187 9.1895 13.0468 9.48859L13.0536 9.61749V11.6136L13.0448 11.7718C13.0339 11.8764 13.0119 11.9794 12.9794 12.0794L12.9227 12.2278C12.8582 12.3723 12.7716 12.5055 12.6659 12.6224L12.5536 12.7337C12.2783 12.9787 11.9221 13.1141 11.5536 13.1136H11.535L11.5155 13.1146C11.4567 13.1191 11.3975 13.1187 11.3387 13.1146C8.84696 12.7851 6.52171 11.6956 4.67664 10.0003L4.31335 9.65265C2.53357 7.86864 1.3522 5.58098 0.924683 3.10577L0.849487 2.6087L0.848511 2.60577L0.835815 2.44366C0.832822 2.33595 0.841117 2.22824 0.861206 2.12238L0.899292 1.96515C0.962302 1.75809 1.06996 1.56735 1.21375 1.40558L1.21277 1.4046C1.31815 1.28703 1.44198 1.18759 1.578 1.1087L1.7196 1.03741C1.86431 0.972832 2.01774 0.930777 2.17468 0.914368L2.33289 0.906555ZM8.33289 3.50031C8.90734 3.50031 9.45882 3.728 9.86511 4.13409C10.2714 4.54035 10.4998 5.0918 10.4999 5.66632C10.4999 5.68855 10.4956 5.71065 10.4872 5.73077L10.451 5.78448C10.4198 5.8157 10.3771 5.83331 10.3329 5.83331C10.3109 5.83325 10.2893 5.82889 10.2694 5.82062L10.2157 5.78448C10.1844 5.75323 10.1669 5.71052 10.1669 5.66632C10.1668 5.24117 10.0188 4.83127 9.75183 4.50519L9.62976 4.37042C9.28594 4.02661 8.81912 3.83331 8.33289 3.83331C8.31089 3.83325 8.28934 3.82889 8.26941 3.82062L8.2157 3.78448C8.18444 3.75323 8.16687 3.71052 8.16687 3.66632C8.16691 3.6443 8.17128 3.6228 8.17957 3.60284L8.2157 3.54913C8.24685 3.51798 8.28884 3.50042 8.33289 3.50031ZM8.33289 0.833313C9.61365 0.834963 10.8419 1.34507 11.7469 2.25128C12.6518 3.15743 13.1599 4.38576 13.16 5.66632V6.09406C13.1577 6.11278 13.1537 6.1311 13.1454 6.14777L13.1083 6.19659C13.0928 6.2107 13.0748 6.22146 13.0555 6.22882L12.995 6.23956H12.9764C12.957 6.23704 12.9379 6.23285 12.9208 6.22394L12.87 6.18292C12.8417 6.14922 12.8282 6.10568 12.8319 6.06183L12.8329 6.04132V5.66632C12.8328 4.54758 12.4162 3.47218 11.6688 2.64679L11.5155 2.48468C10.6716 1.64077 9.52636 1.16632 8.33289 1.16632H7.95886L7.93738 1.16827C7.91511 1.17013 7.89284 1.16809 7.87195 1.16144L7.81433 1.12921C7.79716 1.11473 7.78343 1.09703 7.77332 1.07745L7.75476 1.01398C7.75291 0.991647 7.75587 0.969486 7.76257 0.948547L7.79382 0.89093C7.82123 0.858428 7.86021 0.838631 7.90222 0.833313H8.33289ZM5.49988 2.19757L5.48816 2.14386C5.43628 1.91348 5.31532 1.70489 5.14343 1.54523L5.06726 1.4798C4.85764 1.3163 4.59847 1.22989 4.33289 1.2337H2.33289C2.21071 1.23322 2.08944 1.2514 1.97351 1.28839L1.85828 1.33234C1.70827 1.39837 1.57379 1.49508 1.46375 1.61652C1.37636 1.71243 1.30586 1.82212 1.25476 1.94073L1.20984 2.06183C1.16032 2.22424 1.14728 2.3957 1.17078 2.56378V2.56476C1.49172 5.00909 2.56101 7.2902 4.22546 9.09796L4.56628 9.45343L4.56726 9.45441C6.42316 11.2976 8.83339 12.48 11.4266 12.8206V12.8216C11.4282 12.8218 11.4299 12.8214 11.4315 12.8216C11.4328 12.8218 11.4342 12.8224 11.4354 12.8226V12.8216C11.561 12.8392 11.6882 12.837 11.8124 12.8138L11.9384 12.7835C12.1037 12.7331 12.2559 12.646 12.3837 12.5296L12.3827 12.5286C12.4726 12.4471 12.5498 12.3531 12.6102 12.2484L12.6659 12.14C12.732 11.9915 12.766 11.8308 12.7665 11.6683V11.6517L12.7069 9.5921H12.7059C12.7063 9.33178 12.6203 9.07805 12.4598 8.87238C12.294 8.65996 12.0596 8.51173 11.7968 8.45245L11.7782 8.44855L11.7596 8.44562L11.5048 8.40363L11.2587 8.35284L11.2548 8.35187L11.0038 8.2923C10.8372 8.24974 10.6721 8.20128 10.5087 8.14777L10.2645 8.06378L9.828 7.9046L9.63757 8.32843L9.21863 9.25812C9.20022 9.2981 9.16709 9.32964 9.12585 9.34503L9.11023 9.35089C9.07049 9.36722 9.02614 9.36655 8.98621 9.35089C7.05128 8.4422 5.49469 6.88589 4.58679 4.9505C4.57261 4.91168 4.5731 4.8688 4.58875 4.83038L4.59265 4.82257L4.59558 4.81476C4.60332 4.79398 4.61493 4.77501 4.62976 4.75909L4.68152 4.72101L4.6864 4.71906L5.62 4.27863L6.03894 4.08136L5.8739 3.64874C5.78505 3.41507 5.70907 3.17675 5.64636 2.93488L5.58777 2.69269V2.69171L5.52332 2.42023C5.50812 2.35478 5.49988 2.3067 5.49988 2.25323V2.19757Z" fill="black" stroke="white"/>
</svg>
