<svg width="17" height="16" viewBox="0 0 17 16" fill="none" xmlns="http://www.w3.org/2000/svg">
<path d="M11.8333 6.66665H13.1666C14.5 6.66665 15.1666 5.99998 15.1666 4.66665V3.33331C15.1666 1.99998 14.5 1.33331 13.1666 1.33331H11.8333C10.5 1.33331 9.83331 1.99998 9.83331 3.33331V4.66665C9.83331 5.99998 10.5 6.66665 11.8333 6.66665Z" stroke="#0A2A51" stroke-width="1.5" stroke-miterlimit="10" stroke-linecap="round" stroke-linejoin="round"/>
<path d="M3.83331 14.6666H5.16665C6.49998 14.6666 7.16665 14 7.16665 12.6666V11.3333C7.16665 9.99998 6.49998 9.33331 5.16665 9.33331H3.83331C2.49998 9.33331 1.83331 9.99998 1.83331 11.3333V12.6666C1.83331 14 2.49998 14.6666 3.83331 14.6666Z" stroke="#0A2A51" stroke-width="1.5" stroke-miterlimit="10" stroke-linecap="round" stroke-linejoin="round"/>
<path d="M4.49998 6.66665C5.97274 6.66665 7.16665 5.47274 7.16665 3.99998C7.16665 2.52722 5.97274 1.33331 4.49998 1.33331C3.02722 1.33331 1.83331 2.52722 1.83331 3.99998C1.83331 5.47274 3.02722 6.66665 4.49998 6.66665Z" stroke="#0A2A51" stroke-width="1.5" stroke-miterlimit="10" stroke-linecap="round" stroke-linejoin="round"/>
<path d="M12.5 14.6666C13.9727 14.6666 15.1666 13.4727 15.1666 12C15.1666 10.5272 13.9727 9.33331 12.5 9.33331C11.0272 9.33331 9.83331 10.5272 9.83331 12C9.83331 13.4727 11.0272 14.6666 12.5 14.6666Z" stroke="#0A2A51" stroke-width="1.5" stroke-miterlimit="10" stroke-linecap="round" stroke-linejoin="round"/>
</svg>
