<svg width="17" height="16" viewBox="0 0 17 16" fill="none" xmlns="http://www.w3.org/2000/svg">
<path d="M15.1666 11.16V3.11336C15.1666 2.31336 14.5133 1.72002 13.72 1.78669H13.68C12.28 1.90669 10.1533 2.62002 8.96665 3.36669L8.85331 3.44002C8.65998 3.56002 8.33998 3.56002 8.14665 3.44002L7.97998 3.34002C6.79331 2.60002 4.67331 1.89336 3.27331 1.78002C2.47998 1.71336 1.83331 2.31336 1.83331 3.10669V11.16C1.83331 11.8 2.35331 12.4 2.99331 12.48L3.18665 12.5067C4.63331 12.7 6.86665 13.4334 8.14665 14.1334L8.17331 14.1467C8.35331 14.2467 8.63998 14.2467 8.81331 14.1467C10.0933 13.44 12.3333 12.7 13.7866 12.5067L14.0066 12.48C14.6466 12.4 15.1666 11.8 15.1666 11.16Z" stroke="#0A2A51" stroke-width="1.5" stroke-linecap="round" stroke-linejoin="round"/>
<path d="M8.5 3.65997V13.66" stroke="#0A2A51" stroke-width="1.5" stroke-linecap="round" stroke-linejoin="round"/>
<path d="M5.66669 5.65997H4.16669" stroke="#0A2A51" stroke-linecap="round" stroke-linejoin="round"/>
<path d="M6.16669 7.65997H4.16669" stroke="#292D32" stroke-width="1.5" stroke-linecap="round" stroke-linejoin="round"/>
</svg>
