<svg width="24" height="24" viewBox="0 0 24 24" fill="none" xmlns="http://www.w3.org/2000/svg">
<path fill-rule="evenodd" clip-rule="evenodd" d="M24 12C24 18.6274 18.6274 24 12 24C5.37258 24 0 18.6274 0 12C0 5.37258 5.37258 0 12 0C18.6274 0 24 5.37258 24 12ZM17.061 7.27904L5.49098 11.74C4.69798 12.05 4.71198 12.489 5.35498 12.693L8.31698 13.617L15.188 9.29104C15.507 9.07904 15.803 9.19904 15.561 9.41204L10.001 14.435L9.78798 17.488C10.098 17.488 10.233 17.353 10.393 17.193L11.84 15.799L14.84 18.01C15.387 18.32 15.778 18.16 15.924 17.502L17.894 8.22104C18.068 7.40904 17.598 7.08504 17.061 7.27904Z" fill="#6783A0"/>
</svg>
