<svg width="14" height="14" viewBox="0 0 14 14" fill="none" xmlns="http://www.w3.org/2000/svg">
<path d="M2.33301 0.906555H4.34766C4.66014 0.902069 4.96521 0.99507 5.2207 1.1712L5.32715 1.25226C5.56771 1.45192 5.73956 1.7208 5.81934 2.02081L5.84766 2.15167C5.85793 2.22544 5.86928 2.30115 5.88281 2.37726L5.93262 2.62433C6.00441 2.9429 6.09719 3.25634 6.20996 3.56281V3.56378C6.28024 3.75696 6.27698 3.96979 6.2002 4.16046C6.12378 4.34996 5.97986 4.50432 5.79688 4.59503L5.49902 4.73175L5.00293 4.95831L5.27148 5.43292C5.65955 6.11717 6.13314 6.74995 6.68066 7.31476L6.68652 7.32062L6.69238 7.3255C7.25714 7.873 7.88905 8.34662 8.57324 8.73468L9.04004 8.99933L9.27148 8.51593L9.41602 8.2132C9.50645 8.02854 9.66186 7.88387 9.85254 7.80695C10.0417 7.73069 10.2524 7.7258 10.4443 7.79425V7.79523C10.7502 7.90991 11.064 8.00219 11.3828 8.07355V8.07452C11.4645 8.09311 11.6616 8.14662 11.8574 8.16046C12.1487 8.22074 12.4145 8.36577 12.6221 8.57648L12.708 8.67218C12.901 8.905 13.0188 9.1895 13.0469 9.48859L13.0537 9.61749V11.6136L13.0449 11.7718C13.034 11.8764 13.012 11.9794 12.9795 12.0794L12.9229 12.2278C12.8583 12.3723 12.7717 12.5055 12.666 12.6224L12.5537 12.7337C12.2785 12.9787 11.9222 13.1141 11.5537 13.1136H11.5352L11.5156 13.1146C11.4569 13.1191 11.3976 13.1187 11.3389 13.1146C8.84708 12.7851 6.52183 11.6956 4.67676 10.0003L4.31348 9.65265C2.53369 7.86864 1.35232 5.58098 0.924805 3.10577L0.849609 2.6087L0.848633 2.60577L0.835938 2.44366C0.832944 2.33595 0.841239 2.22824 0.861328 2.12238L0.899414 1.96515C0.962424 1.75809 1.07009 1.56735 1.21387 1.40558L1.21289 1.4046C1.31828 1.28703 1.4421 1.18759 1.57812 1.1087L1.71973 1.03741C1.86443 0.972832 2.01786 0.930777 2.1748 0.914368L2.33301 0.906555ZM8.33301 3.50031C8.90746 3.50031 9.45894 3.728 9.86523 4.13409C10.2715 4.54035 10.4999 5.0918 10.5 5.66632C10.5 5.68855 10.4957 5.71065 10.4873 5.73077L10.4512 5.78448C10.4199 5.8157 10.3772 5.83331 10.333 5.83331C10.311 5.83325 10.2895 5.82889 10.2695 5.82062L10.2158 5.78448C10.1846 5.75323 10.167 5.71052 10.167 5.66632C10.1669 5.24117 10.019 4.83127 9.75195 4.50519L9.62988 4.37042C9.28607 4.02661 8.81924 3.83331 8.33301 3.83331C8.31102 3.83325 8.28946 3.82889 8.26953 3.82062L8.21582 3.78448C8.18456 3.75323 8.16699 3.71052 8.16699 3.66632C8.16704 3.6443 8.17141 3.6228 8.17969 3.60284L8.21582 3.54913C8.24697 3.51798 8.28896 3.50042 8.33301 3.50031ZM8.33301 0.833313C9.61377 0.834963 10.842 1.34507 11.7471 2.25128C12.6519 3.15743 13.1601 4.38576 13.1602 5.66632V6.09406C13.1578 6.11278 13.1538 6.1311 13.1455 6.14777L13.1084 6.19659C13.0929 6.2107 13.0749 6.22146 13.0557 6.22882L12.9951 6.23956H12.9766C12.9571 6.23704 12.9381 6.23285 12.9209 6.22394L12.8701 6.18292C12.8418 6.14922 12.8283 6.10568 12.832 6.06183L12.833 6.04132V5.66632C12.8329 4.54758 12.4163 3.47218 11.6689 2.64679L11.5156 2.48468C10.6717 1.64077 9.52648 1.16632 8.33301 1.16632H7.95898L7.9375 1.16827C7.91523 1.17013 7.89296 1.16809 7.87207 1.16144L7.81445 1.12921C7.79728 1.11473 7.78355 1.09703 7.77344 1.07745L7.75488 1.01398C7.75303 0.991647 7.756 0.969486 7.7627 0.948547L7.79395 0.89093C7.82136 0.858428 7.86033 0.838631 7.90234 0.833313H8.33301ZM5.5 2.19757L5.48828 2.14386C5.4364 1.91348 5.31544 1.70489 5.14355 1.54523L5.06738 1.4798C4.85776 1.3163 4.59859 1.22989 4.33301 1.2337H2.33301C2.21084 1.23322 2.08956 1.2514 1.97363 1.28839L1.8584 1.33234C1.7084 1.39837 1.57391 1.49508 1.46387 1.61652C1.37648 1.71243 1.30598 1.82212 1.25488 1.94073L1.20996 2.06183C1.16044 2.22424 1.14741 2.3957 1.1709 2.56378V2.56476C1.49184 5.00909 2.56113 7.2902 4.22559 9.09796L4.56641 9.45343L4.56738 9.45441C6.42328 11.2976 8.83351 12.48 11.4268 12.8206V12.8216C11.4283 12.8218 11.4301 12.8214 11.4316 12.8216C11.4329 12.8218 11.4343 12.8224 11.4355 12.8226V12.8216C11.5611 12.8392 11.6884 12.837 11.8125 12.8138L11.9385 12.7835C12.1038 12.7331 12.256 12.646 12.3838 12.5296L12.3828 12.5286C12.4727 12.4471 12.5499 12.3531 12.6104 12.2484L12.666 12.14C12.7322 11.9915 12.7662 11.8308 12.7666 11.6683V11.6517L12.707 9.5921H12.7061C12.7064 9.33178 12.6204 9.07805 12.46 8.87238C12.2941 8.65996 12.0598 8.51173 11.7969 8.45245L11.7783 8.44855L11.7598 8.44562L11.5049 8.40363L11.2588 8.35284L11.2549 8.35187L11.0039 8.2923C10.8373 8.24974 10.6722 8.20128 10.5088 8.14777L10.2646 8.06378L9.82812 7.9046L9.6377 8.32843L9.21875 9.25812C9.20034 9.2981 9.16722 9.32964 9.12598 9.34503L9.11035 9.35089C9.07061 9.36722 9.02626 9.36655 8.98633 9.35089C7.0514 8.4422 5.49482 6.88589 4.58691 4.9505C4.57273 4.91168 4.57323 4.8688 4.58887 4.83038L4.59277 4.82257L4.5957 4.81476C4.60344 4.79398 4.61505 4.77501 4.62988 4.75909L4.68164 4.72101L4.68652 4.71906L5.62012 4.27863L6.03906 4.08136L5.87402 3.64874C5.78517 3.41507 5.70919 3.17675 5.64648 2.93488L5.58789 2.69269V2.69171L5.52344 2.42023C5.50824 2.35478 5.5 2.3067 5.5 2.25323V2.19757Z" fill="black" stroke="#E20054"/>
</svg>
